<svg width="508" height="379" viewBox="0 0 508 379" fill="none" xmlns="http://www.w3.org/2000/svg">
<path d="M508 332.638H0V332.892H508V332.638Z" fill="#E0E0E0"/>
<path d="M383.702 343.398H348.752V343.652H383.702V343.398Z" fill="#E0E0E0"/>
<path d="M112.815 343.52H93.1455V343.774H112.815V343.52Z" fill="#E0E0E0"/>
<path d="M255.021 342.93H215.153V343.184H255.021V342.93Z" fill="#E0E0E0"/>
<path d="M214.136 339.314H196.315V339.568H214.136V339.314Z" fill="#E0E0E0"/>
<path d="M431.355 339.446H377.518V339.7H431.355V339.446Z" fill="#E0E0E0"/>
<path d="M240.79 287.325H44.6105C43.0737 287.322 41.6007 286.709 40.5149 285.622C39.4292 284.534 38.8193 283.06 38.8193 281.523V5.75055C38.8327 4.22252 39.4484 2.76146 40.5328 1.68475C41.6171 0.608033 43.0824 0.00261761 44.6105 0H240.79C242.329 0 243.804 0.611213 244.892 1.69918C245.98 2.78714 246.591 4.26274 246.591 5.80135V281.523C246.591 283.062 245.98 284.537 244.892 285.625C243.804 286.713 242.329 287.325 240.79 287.325V287.325ZM44.6105 0.203201C43.141 0.205892 41.7327 0.791529 40.6945 1.83157C39.6564 2.87161 39.0733 4.28106 39.0733 5.75055V281.523C39.0733 282.993 39.6564 284.402 40.6945 285.442C41.7327 286.482 43.141 287.068 44.6105 287.071H240.79C242.261 287.068 243.67 286.483 244.71 285.443C245.749 284.403 246.335 282.994 246.337 281.523V5.75055C246.335 4.28013 245.749 2.8707 244.71 1.83095C243.67 0.791199 242.261 0.205886 240.79 0.203201H44.6105Z" fill="#E0E0E0"/>
<path d="M460.559 287.325H264.37C262.832 287.322 261.358 286.71 260.271 285.622C259.183 284.535 258.571 283.061 258.568 281.523V5.75055C258.584 4.22159 259.202 2.76055 260.288 1.68411C261.374 0.607678 262.841 0.00258906 264.37 0H460.559C462.086 0.00528776 463.548 0.611885 464.631 1.68831C465.713 2.76474 466.327 4.22427 466.34 5.75055V281.523C466.34 283.058 465.732 284.531 464.648 285.618C463.565 286.706 462.094 287.319 460.559 287.325V287.325ZM264.37 0.203201C262.899 0.205886 261.49 0.791199 260.45 1.83095C259.41 2.8707 258.825 4.28013 258.822 5.75055V281.523C258.825 282.994 259.41 284.403 260.45 285.443C261.49 286.483 262.899 287.068 264.37 287.071H460.559C462.03 287.068 463.439 286.483 464.479 285.443C465.519 284.403 466.104 282.994 466.107 281.523V5.75055C466.104 4.28013 465.519 2.8707 464.479 1.83095C463.439 0.791199 462.03 0.205886 460.559 0.203201H264.37Z" fill="#E0E0E0"/>
<path d="M446.342 205.466C433.845 186.436 445.255 165.984 443.355 144.811C441.455 123.637 421.338 119.024 425.148 101.123C429.558 80.3148 417.803 60.3504 404.483 60.3504C391.163 60.3504 379.418 80.264 383.828 101.092C387.638 119.024 367.572 123.647 365.621 144.78C363.67 165.913 375.131 186.436 362.624 205.435C350.117 224.435 353.409 249.662 360.449 262.169C362.322 265.487 364.58 268.574 367.175 271.364C371.947 276.486 377.723 280.571 384.142 283.365C390.561 286.158 397.487 287.6 404.488 287.6C411.489 287.6 418.415 286.158 424.834 283.365C431.253 280.571 437.029 276.486 441.801 271.364C444.39 268.571 446.643 265.485 448.516 262.169C455.567 249.692 458.849 224.536 446.342 205.466Z" fill="#E0E0E0"/>
<path d="M404.486 219.903C405.316 219.903 406.138 220.066 406.905 220.384C407.672 220.702 408.368 221.167 408.955 221.754C409.542 222.341 410.007 223.037 410.325 223.804C410.643 224.571 410.806 225.393 410.806 226.223V332.638H398.167V226.223C398.167 225.393 398.33 224.571 398.648 223.804C398.966 223.037 399.431 222.341 400.018 221.754C400.605 221.167 401.301 220.702 402.068 220.384C402.835 220.066 403.657 219.903 404.486 219.903V219.903Z" fill="#F0F0F0"/>
<path d="M325.031 332.639H307.851V226.233C307.856 223.952 308.764 221.766 310.377 220.154C311.99 218.541 314.175 217.633 316.456 217.627V217.627C318.737 217.633 320.923 218.541 322.535 220.154C324.148 221.766 325.056 223.952 325.062 226.233L325.031 332.639Z" fill="#E0E0E0"/>
<path d="M316.425 303.936C345.698 303.936 369.429 280.205 369.429 250.932C369.429 221.658 345.698 197.927 316.425 197.927C287.151 197.927 263.42 221.658 263.42 250.932C263.42 280.205 287.151 303.936 316.425 303.936Z" fill="#F0F0F0"/>
<path d="M378.71 235.026C381.492 223.83 374.67 212.499 363.473 209.718C352.277 206.936 340.946 213.758 338.165 224.955C335.384 236.151 342.205 247.482 353.402 250.263C364.598 253.045 375.929 246.223 378.71 235.026Z" fill="#F0F0F0"/>
<path d="M285.753 219.608C286.851 212.868 282.276 206.514 275.536 205.416C268.796 204.319 262.443 208.893 261.345 215.633C260.247 222.373 264.821 228.727 271.561 229.824C278.301 230.922 284.655 226.348 285.753 219.608Z" fill="#F0F0F0"/>
<path d="M286.997 219.903C291.789 219.903 295.674 216.018 295.674 211.226C295.674 206.434 291.789 202.55 286.997 202.55C282.205 202.55 278.32 206.434 278.32 211.226C278.32 216.018 282.205 219.903 286.997 219.903Z" fill="#F0F0F0"/>
<path d="M207.262 269.129C199.02 270.356 191.143 273.362 184.178 277.937C184.118 269.891 182.644 262.26 178.865 256.093C173.114 261.691 168.451 268.946 164.641 276.749C163.249 262.128 159.398 247.904 150.874 238.892C138.103 246.929 131.519 260.32 128.39 274.503C123.22 264.94 115.717 256.838 106.576 250.952C98.7634 259.182 96.264 270.561 96.4774 282.225C87.5976 271.882 77.7424 263.815 68.131 262.87C65.7637 279.217 70.8031 294.64 77.214 306.832C81.3763 314.655 87.5943 321.193 95.198 325.742C102.802 330.291 111.503 332.68 120.364 332.649H162.111C179.901 332.649 196.584 323.159 204.925 307.442C210.198 297.485 212.718 284.673 207.262 269.129Z" fill="#E0E0E0"/>
<path d="M195.333 58.0542C200.484 42.9463 196.349 32.1868 183.781 32.1868C175.876 32.1868 166.072 36.4235 156.522 43.312C155.445 39.3801 152.407 37.0331 147.52 37.0331C138.914 37.0331 127.058 44.3077 117.761 54.5693C115.144 52.0826 111.679 50.6842 108.069 50.6577C99.829 50.1903 89.862 54.3763 81.1956 61.1733C80.7613 60.5655 80.188 60.0704 79.5234 59.7293C78.8589 59.3882 78.1224 59.2109 77.3754 59.2124C72.6307 58.9483 66.1994 63.1748 63.0193 68.6409C62.8263 68.9762 62.6536 69.3114 62.4707 69.6569H197.832C198.239 64.8817 197.395 60.899 195.333 58.0542Z" fill="#F0F0F0"/>
<path d="M195.752 149.789C198.272 142.413 196.27 137.16 190.113 137.16C186.242 137.16 181.457 139.192 176.793 142.595C176.542 141.647 175.962 140.82 175.155 140.261C174.349 139.703 173.37 139.45 172.394 139.547C168.198 139.547 162.407 143.103 157.855 148.122C156.579 146.904 154.885 146.22 153.121 146.212C149.057 145.979 144.231 148.021 139.994 151.343C139.789 151.049 139.517 150.808 139.201 150.639C138.885 150.469 138.534 150.376 138.175 150.368C135.859 150.236 132.719 152.298 131.165 154.97L130.891 155.458H197.012C197.288 153.478 196.841 151.465 195.752 149.789V149.789Z" fill="#F0F0F0"/>
<path d="M348.25 93.9698C347.728 93.8964 347.202 93.8591 346.675 93.858C347.163 86.492 344.348 81.7778 338.323 81.7778C333.985 81.7778 328.651 84.2365 323.226 88.3919C324.78 74.0866 319.802 64.7902 308.524 64.7902C299.441 64.7902 287.93 70.8862 276.561 80.7008C275.545 75.0925 272.212 71.7193 266.584 71.7193C256.698 71.7193 242.647 82.1232 231.379 96.7942C230.095 95.1025 228.449 93.7198 226.56 92.7475C224.672 91.7753 222.59 91.2382 220.467 91.1758C211.059 90.5154 199.365 96.4894 188.971 106.223C188.593 105.402 187.991 104.704 187.235 104.21C186.478 103.716 185.597 103.445 184.694 103.429C179.543 103.063 172.502 108.438 168.326 115.621H356.53C360.95 104.729 357.434 95.1991 348.25 93.9698Z" fill="#F0F0F0"/>
<path d="M254 378.521C362.796 378.521 450.992 373.372 450.992 367.02C450.992 360.668 362.796 355.519 254 355.519C145.204 355.519 57.0078 360.668 57.0078 367.02C57.0078 373.372 145.204 378.521 254 378.521Z" fill="#F5F5F5"/>
<path d="M49.6406 97.0889L281.258 130.434L312.338 161.798L49.6406 97.0889Z" fill="#0682FF"/>
<path opacity="0.6" d="M49.6406 97.0889L281.258 130.434L312.338 161.798L49.6406 97.0889Z" fill="white"/>
<path d="M49.6406 97.0889L281.258 130.434L270.509 175.788L49.6406 97.0889Z" fill="#0682FF"/>
<path opacity="0.2" d="M49.6406 97.0889L281.258 130.434L270.509 175.788L49.6406 97.0889Z" fill="black"/>
<path d="M265.756 44.5816L279.197 107.574C279.547 109.219 279.23 110.935 278.316 112.346C277.401 113.758 275.965 114.749 274.321 115.102L154.351 140.705C152.707 141.052 150.992 140.734 149.581 139.82C148.17 138.906 147.179 137.471 146.823 135.829L133.371 72.8366C133.024 71.1905 133.344 69.4742 134.26 68.0632C135.176 66.6523 136.613 65.6616 138.258 65.3081L258.227 39.7049C259.873 39.3583 261.59 39.6779 263.001 40.5938C264.412 41.5097 265.402 42.9472 265.756 44.5918V44.5816Z" fill="#0682FF"/>
<path opacity="0.4" d="M265.756 44.5816L279.197 107.574C279.547 109.219 279.23 110.935 278.316 112.346C277.401 113.758 275.965 114.749 274.321 115.102L154.351 140.705C152.707 141.052 150.992 140.734 149.581 139.82C148.17 138.906 147.179 137.471 146.823 135.829L133.371 72.8366C133.024 71.1905 133.344 69.4742 134.26 68.0632C135.176 66.6523 136.613 65.6616 138.258 65.3081L258.227 39.7049C259.873 39.3583 261.59 39.6779 263.001 40.5938C264.412 41.5097 265.402 42.9472 265.756 44.5918V44.5816Z" fill="black"/>
<path d="M262.799 40.457L222.718 89.6619C219.001 94.2239 213.837 97.3803 208.082 98.6089C202.327 99.8374 196.325 99.0647 191.069 96.4183L134.387 67.8687C135.304 66.5514 136.688 65.6324 138.258 65.2982L258.227 39.695C259.792 39.3618 261.426 39.6341 262.799 40.457V40.457Z" fill="#0682FF"/>
<path d="M49.6406 97.0889L240.679 142.494L270.509 175.788L49.6406 97.0889Z" fill="#0682FF"/>
<path opacity="0.6" d="M49.6406 97.0889L240.679 142.494L270.509 175.788L49.6406 97.0889Z" fill="white"/>
<path d="M119.328 140.853L118.814 141.73L140.074 154.183L140.587 153.306L119.328 140.853Z" fill="#0682FF"/>
<path d="M149.963 158.796L149.449 159.673L157.094 164.151L157.607 163.274L149.963 158.796Z" fill="#0682FF"/>
<path d="M49.6406 97.0889L240.679 142.494L203.544 187.249L49.6406 97.0889Z" fill="#0682FF"/>
<path d="M305.158 203.464C304.901 203.465 304.645 203.416 304.406 203.322L273.296 191.008C272.798 190.807 272.4 190.418 272.188 189.925C271.977 189.432 271.968 188.875 272.166 188.376C272.363 187.877 272.749 187.476 273.241 187.261C273.733 187.046 274.289 187.034 274.79 187.228L305.91 199.542C306.35 199.716 306.716 200.038 306.944 200.453C307.172 200.868 307.248 201.35 307.159 201.815C307.069 202.279 306.821 202.699 306.455 203C306.09 203.301 305.631 203.465 305.158 203.464V203.464Z" fill="#0682FF"/>
<path opacity="0.3" d="M305.158 203.464C304.901 203.465 304.645 203.416 304.406 203.322L273.296 191.008C272.798 190.807 272.4 190.418 272.188 189.925C271.977 189.432 271.968 188.875 272.166 188.376C272.363 187.877 272.749 187.476 273.241 187.261C273.733 187.046 274.289 187.034 274.79 187.228L305.91 199.542C306.35 199.716 306.716 200.038 306.944 200.453C307.172 200.868 307.248 201.35 307.159 201.815C307.069 202.279 306.821 202.699 306.455 203C306.09 203.301 305.631 203.465 305.158 203.464V203.464Z" fill="black"/>
<path d="M303.326 185.623C303.071 185.621 302.819 185.57 302.584 185.471L285.871 178.816C285.621 178.719 285.393 178.574 285.199 178.388C285.006 178.203 284.851 177.981 284.744 177.736C284.636 177.49 284.578 177.226 284.574 176.958C284.569 176.69 284.617 176.424 284.715 176.174C284.814 175.925 284.961 175.698 285.147 175.506C285.334 175.313 285.557 175.16 285.803 175.054C286.049 174.948 286.314 174.892 286.582 174.889C286.85 174.886 287.116 174.936 287.365 175.036L304.078 181.661C304.579 181.858 304.981 182.246 305.196 182.739C305.411 183.232 305.422 183.791 305.226 184.292C305.083 184.681 304.824 185.017 304.484 185.255C304.145 185.493 303.741 185.622 303.326 185.623Z" fill="#0682FF"/>
<path opacity="0.5" d="M303.326 185.623C303.071 185.621 302.819 185.57 302.584 185.471L285.871 178.816C285.621 178.719 285.393 178.574 285.199 178.388C285.006 178.203 284.851 177.981 284.744 177.736C284.636 177.49 284.578 177.226 284.574 176.958C284.569 176.69 284.617 176.424 284.715 176.174C284.814 175.925 284.961 175.698 285.147 175.506C285.334 175.313 285.557 175.16 285.803 175.054C286.049 174.948 286.314 174.892 286.582 174.889C286.85 174.886 287.116 174.936 287.365 175.036L304.078 181.661C304.579 181.858 304.981 182.246 305.196 182.739C305.411 183.232 305.422 183.791 305.226 184.292C305.083 184.681 304.824 185.017 304.484 185.255C304.145 185.493 303.741 185.622 303.326 185.623Z" fill="white"/>
<path d="M268.385 203.2C268.132 203.197 267.88 203.149 267.644 203.058L237.296 191.008C237.046 190.911 236.818 190.766 236.624 190.58C236.431 190.395 236.276 190.173 236.168 189.928C236.061 189.682 236.003 189.418 235.998 189.15C235.994 188.882 236.042 188.616 236.14 188.366C236.239 188.117 236.386 187.89 236.572 187.698C236.759 187.505 236.982 187.352 237.228 187.246C237.474 187.14 237.739 187.084 238.007 187.081C238.275 187.078 238.541 187.128 238.789 187.228L269.137 199.237C269.577 199.411 269.943 199.734 270.171 200.149C270.399 200.563 270.475 201.045 270.386 201.51C270.297 201.975 270.048 202.394 269.683 202.695C269.318 202.996 268.859 203.16 268.385 203.159V203.2Z" fill="#0682FF"/>
<path opacity="0.3" d="M268.385 203.2C268.132 203.197 267.88 203.149 267.644 203.058L237.296 191.008C237.046 190.911 236.818 190.766 236.624 190.58C236.431 190.395 236.276 190.173 236.168 189.928C236.061 189.682 236.003 189.418 235.998 189.15C235.994 188.882 236.042 188.616 236.14 188.366C236.239 188.117 236.386 187.89 236.572 187.698C236.759 187.505 236.982 187.352 237.228 187.246C237.474 187.14 237.739 187.084 238.007 187.081C238.275 187.078 238.541 187.128 238.789 187.228L269.137 199.237C269.577 199.411 269.943 199.734 270.171 200.149C270.399 200.563 270.475 201.045 270.386 201.51C270.297 201.975 270.048 202.394 269.683 202.695C269.318 202.996 268.859 203.16 268.385 203.159V203.2Z" fill="black"/>
<path d="M378.253 111.577C380.946 116.83 383.414 122.093 385.761 127.477C388.108 132.862 390.293 138.318 392.203 144.038L392.894 146.202C393.016 146.588 393.188 147.218 393.29 147.665C393.392 148.112 393.483 148.62 393.534 149.047C393.766 150.686 393.885 152.34 393.889 153.995C393.905 157.048 393.762 160.1 393.463 163.139C392.895 169.021 391.972 174.864 390.699 180.635L385.121 180.015C385.05 174.295 384.999 168.514 384.796 162.875C384.705 160.071 384.542 157.256 384.258 154.615C384.129 153.374 383.925 152.143 383.648 150.927C383.597 150.642 383.516 150.429 383.455 150.195C383.394 149.962 383.333 149.88 383.232 149.575L382.459 147.655C380.336 142.514 377.948 137.333 375.51 132.171L368.134 116.688L378.253 111.577Z" fill="#E4897B"/>
<path d="M385.207 178.227L382.606 183.093L390.917 185.41C390.917 185.41 392.502 181.498 390.613 178.41L385.207 178.227Z" fill="#E4897B"/>
<path d="M379.432 190.104L387.072 190.713L390.923 185.41L382.612 183.093L379.432 190.104Z" fill="#E4897B"/>
<path d="M343.277 76.4642C343.165 77.0637 342.748 77.4802 342.362 77.399C341.976 77.3177 341.763 76.7792 341.885 76.1899C342.007 75.6006 342.413 75.1739 342.799 75.2552C343.185 75.3365 343.409 75.875 343.277 76.4642Z" fill="#263238"/>
<path d="M342.806 77.4801C341.733 79.1423 340.437 80.6498 338.955 81.9606C339.301 82.3287 339.723 82.6174 340.191 82.8068C340.659 82.9963 341.163 83.0819 341.668 83.0579L342.806 77.4801Z" fill="#DE5753"/>
<path d="M346.106 73.6295C346.01 73.627 345.919 73.5869 345.852 73.5177C345.56 73.1838 345.194 72.9234 344.783 72.7575C344.371 72.5916 343.927 72.5248 343.485 72.5626C343.401 72.5635 343.319 72.5344 343.254 72.4806C343.19 72.4268 343.146 72.3518 343.131 72.2689C343.117 72.186 343.132 72.1005 343.174 72.0278C343.217 71.9551 343.284 71.8998 343.363 71.8718C343.928 71.8002 344.502 71.8694 345.034 72.0732C345.566 72.2771 346.039 72.6092 346.411 73.0402C346.476 73.1066 346.513 73.196 346.513 73.2891C346.513 73.3822 346.476 73.4715 346.411 73.538C346.371 73.5752 346.322 73.6028 346.269 73.6186C346.216 73.6344 346.161 73.6382 346.106 73.6295Z" fill="#263238"/>
<path d="M360.084 84.7649C359.017 90.2309 357.95 100.228 361.77 103.876C361.77 103.876 360.277 109.413 350.127 109.413C338.951 109.413 344.803 103.876 344.803 103.876C350.899 102.423 350.726 97.9018 349.67 93.665L360.084 84.7649Z" fill="#E4897B"/>
<path d="M363.305 107.32C364.107 104.648 364.991 101.59 363.162 100.625C361.13 99.6085 350.087 98.491 346.277 100.472C342.467 102.453 343.554 107.889 343.554 107.889L363.305 107.32Z" fill="#263238"/>
<path d="M386.735 360.68C386.419 360.722 386.099 360.7 385.791 360.616C385.484 360.533 385.197 360.388 384.947 360.192C384.858 360.069 384.811 359.922 384.811 359.77C384.811 359.619 384.858 359.471 384.947 359.349C385.005 359.243 385.085 359.152 385.181 359.08C385.277 359.008 385.388 358.958 385.505 358.932C386.603 358.688 388.655 360.09 388.746 360.151C388.773 360.173 388.793 360.202 388.806 360.234C388.818 360.266 388.822 360.3 388.818 360.334C388.812 360.367 388.796 360.397 388.772 360.421C388.749 360.445 388.718 360.461 388.685 360.466C388.044 360.605 387.391 360.676 386.735 360.68V360.68ZM385.8 359.257H385.587C385.518 359.271 385.453 359.301 385.397 359.343C385.341 359.385 385.294 359.439 385.262 359.501C385.099 359.786 385.201 359.907 385.262 359.948C385.577 360.375 387.101 360.375 388.218 360.192C387.49 359.711 386.664 359.399 385.8 359.278V359.257Z" fill="#0682FF"/>
<path d="M388.648 360.497H388.567C387.794 360.07 386.301 358.465 386.453 357.612C386.479 357.48 386.55 357.361 386.654 357.276C386.758 357.191 386.888 357.144 387.022 357.144C387.156 357.13 387.291 357.142 387.421 357.181C387.55 357.219 387.67 357.283 387.774 357.368C388.638 358.079 388.79 360.233 388.79 360.324C388.794 360.356 388.789 360.389 388.774 360.418C388.76 360.447 388.737 360.471 388.709 360.487C388.689 360.495 388.669 360.498 388.648 360.497ZM387.144 357.449H387.103C386.87 357.449 386.849 357.591 386.839 357.632C386.748 358.13 387.703 359.359 388.465 359.938C388.414 359.09 388.109 358.276 387.591 357.601C387.523 357.548 387.444 357.509 387.361 357.486C387.277 357.463 387.189 357.458 387.103 357.469L387.144 357.449Z" fill="#0682FF"/>
<path d="M341.922 360.681C340.967 360.681 340.043 360.549 339.728 360.122C339.648 360.009 339.605 359.874 339.605 359.736C339.605 359.598 339.648 359.463 339.728 359.35C339.789 359.246 339.872 359.155 339.969 359.083C340.067 359.012 340.179 358.961 340.297 358.933C341.526 358.598 344.147 360.082 344.259 360.142C344.289 360.162 344.313 360.189 344.327 360.222C344.341 360.254 344.346 360.29 344.34 360.325C344.335 360.361 344.318 360.394 344.292 360.419C344.267 360.445 344.234 360.462 344.198 360.468C343.448 360.609 342.686 360.68 341.922 360.681V360.681ZM340.734 359.238C340.622 359.222 340.509 359.222 340.398 359.238C340.327 359.252 340.259 359.281 340.2 359.323C340.14 359.365 340.09 359.419 340.053 359.482C339.921 359.706 339.972 359.807 340.053 359.868C340.388 360.336 342.278 360.366 343.68 360.173C342.767 359.68 341.766 359.369 340.734 359.259V359.238Z" fill="#0682FF"/>
<path d="M344.164 360.497H344.093C343.189 360.101 341.411 358.465 341.543 357.642C341.543 357.439 341.716 357.195 342.203 357.144C342.385 357.117 342.57 357.13 342.746 357.183C342.921 357.235 343.083 357.326 343.219 357.449C344.175 358.221 344.368 360.233 344.378 360.324C344.382 360.355 344.377 360.387 344.365 360.416C344.352 360.444 344.332 360.469 344.307 360.487C344.285 360.499 344.261 360.506 344.237 360.507C344.212 360.509 344.187 360.506 344.164 360.497V360.497ZM342.346 357.449H342.234C341.919 357.449 341.899 357.612 341.889 357.652C341.807 358.16 343.026 359.43 343.921 359.979C343.833 359.126 343.477 358.322 342.905 357.683C342.76 357.557 342.578 357.482 342.386 357.469L342.346 357.449Z" fill="#0682FF"/>
<path d="M352.381 360.314H344.914L344.172 343.032H351.639L352.381 360.314Z" fill="#E4897B"/>
<path d="M397.196 360.314H389.729L385.979 343.032H393.437L397.196 360.314Z" fill="#E4897B"/>
<path d="M389.201 359.451H397.583C397.733 359.452 397.878 359.504 397.994 359.598C398.11 359.692 398.191 359.823 398.223 359.969L399.697 366.603C399.73 366.765 399.727 366.932 399.687 367.092C399.647 367.252 399.572 367.401 399.466 367.528C399.361 367.655 399.228 367.757 399.078 367.825C398.928 367.894 398.764 367.928 398.599 367.924C395.673 367.873 394.251 367.701 390.563 367.701C388.297 367.701 383.623 367.944 380.484 367.944C377.345 367.944 376.948 364.896 378.228 364.561C383.979 363.301 386.143 361.564 387.982 359.918C388.316 359.616 388.751 359.449 389.201 359.451V359.451Z" fill="#263238"/>
<path d="M344.967 359.451H353.095C353.245 359.452 353.39 359.504 353.506 359.598C353.622 359.692 353.703 359.823 353.735 359.969L355.209 366.603C355.244 366.763 355.243 366.929 355.205 367.089C355.167 367.248 355.093 367.397 354.99 367.524C354.886 367.651 354.755 367.753 354.606 367.822C354.458 367.892 354.296 367.926 354.132 367.924C351.195 367.873 346.949 367.701 343.25 367.701C338.932 367.701 335.193 367.944 330.124 367.944C327.076 367.944 326.212 364.896 327.492 364.561C333.334 363.281 338.099 363.149 343.149 360.04C343.686 359.674 344.317 359.47 344.967 359.451V359.451Z" fill="#263238"/>
<path d="M341.379 116.982C335.138 116.499 328.927 115.674 322.776 114.513C319.728 113.924 316.619 113.264 313.53 112.43C310.365 111.62 307.256 110.602 304.224 109.382C303.441 109.057 302.649 108.702 301.867 108.366C300.986 107.933 300.137 107.437 299.327 106.883C297.864 105.918 296.604 104.912 295.354 103.916C292.865 101.884 290.559 99.8524 288.242 97.7696C283.701 93.5634 279.393 89.2149 275.237 84.6429L278.976 80.4671L293.718 91.064C296.147 92.8115 298.605 94.5286 301.023 96.144C302.222 96.9467 303.452 97.6985 304.579 98.3386C305.051 98.6075 305.54 98.8451 306.042 99.0498C306.642 99.2835 307.251 99.5171 307.892 99.7406C313.383 101.431 318.998 102.688 324.686 103.5C330.487 104.414 336.482 105.166 342.273 105.776L341.379 116.982Z" fill="#E4897B"/>
<path d="M375.122 105.562C382.122 107.168 389.194 127.62 389.194 127.62L374.797 137.952C374.797 137.952 370.733 128.422 366.811 120.091C362.707 111.364 367.969 103.927 375.122 105.562Z" fill="#0682FF"/>
<path opacity="0.4" d="M375.122 105.562C382.122 107.168 389.194 127.62 389.194 127.62L374.797 137.952C374.797 137.952 370.733 128.422 366.811 120.091C362.707 111.364 367.969 103.927 375.122 105.562Z" fill="black"/>
<path d="M371.092 116.738L368.237 123.129C371.194 129.509 373.896 135.829 374.618 137.516C374.516 129.967 373.084 120.599 371.092 116.738Z" fill="#0682FF"/>
<path opacity="0.6" d="M371.092 116.738L368.237 123.129C371.194 129.509 373.896 135.829 374.618 137.516C374.516 129.967 373.084 120.599 371.092 116.738Z" fill="black"/>
<path d="M333.32 105.948C333.32 105.948 325.375 114.92 332.873 170.464H372.791C373.076 164.368 369.225 134.437 375.128 105.562C370.716 104.713 366.253 104.149 361.768 103.876C356.117 103.55 350.452 103.55 344.801 103.876C340.925 104.266 337.087 104.959 333.32 105.948V105.948Z" fill="#0682FF"/>
<path opacity="0.4" d="M333.32 105.948C333.32 105.948 325.375 114.92 332.873 170.464H372.791C373.076 164.368 369.225 134.437 375.128 105.562C370.716 104.713 366.253 104.149 361.768 103.876C356.117 103.55 350.452 103.55 344.801 103.876C340.925 104.266 337.087 104.959 333.32 105.948V105.948Z" fill="black"/>
<path d="M330.369 116.738C330.105 118.841 329.902 121.331 329.77 124.267C333.712 123.084 337.457 121.324 340.885 119.045L330.369 116.738Z" fill="#0682FF"/>
<path opacity="0.6" d="M330.369 116.738C330.105 118.841 329.902 121.331 329.77 124.267C333.712 123.084 337.457 121.324 340.885 119.045L330.369 116.738Z" fill="black"/>
<path d="M347.472 117.856C342.128 122.591 321.726 122.113 321.726 122.113L321.056 102.362C327.945 103.343 334.894 103.846 341.853 103.866C353.222 103.632 353.304 112.634 347.472 117.856Z" fill="#0682FF"/>
<path opacity="0.4" d="M347.472 117.856C342.128 122.591 321.726 122.113 321.726 122.113L321.056 102.362C327.945 103.343 334.894 103.846 341.853 103.866C353.222 103.632 353.304 112.634 347.472 117.856Z" fill="black"/>
<path d="M279.161 80.5078L274.081 74.5235L268.604 80.6195C268.604 80.6195 271.978 86.2888 277.332 85.3947L279.161 80.5078Z" fill="#E4897B"/>
<path d="M266.816 67.5438L264.845 75.3569L268.573 80.5791L274.05 74.5237L266.816 67.5438Z" fill="#E4897B"/>
<path d="M344.172 343.042L344.558 351.943H352.026L351.639 343.042H344.172Z" fill="#CE6F64"/>
<path d="M393.447 343.042H385.979L387.91 351.943H395.377L393.447 343.042Z" fill="#CE6F64"/>
<path d="M348.659 69.0881C341.963 66.0401 339.85 52.4969 359.113 55.8801C359.113 55.8801 356.207 59.0907 362.1 61.1227C367.993 63.1547 363.065 75.7023 348.659 69.0881Z" fill="#263238"/>
<path d="M363.207 79.2481C361.287 86.3601 360.535 90.6883 356.095 93.6651C349.45 98.1355 341.19 93.0047 340.926 85.4152C340.692 78.5979 343.872 68.0416 351.543 66.5989C353.236 66.2669 354.986 66.3743 356.626 66.9107C358.266 67.4472 359.741 68.3948 360.911 69.6632C362.08 70.9317 362.906 72.4786 363.307 74.1566C363.709 75.8345 363.675 77.5874 363.207 79.2481Z" fill="#E4897B"/>
<path d="M358.857 59.4358C363.418 61.9758 369.596 63.4998 369.017 67.1168C368.255 71.5364 372.745 68.7729 371.699 75.3464C371.018 79.6441 363.093 92.6692 357.475 92.0393C349.083 91.0233 350.149 78.2623 350.119 71.5364C350.099 67.5638 349.916 54.427 358.857 59.4358Z" fill="#263238"/>
<path d="M349.107 65.136C347.075 65.6135 344.382 77.328 352.256 78.4049C361.309 79.6343 349.107 65.136 349.107 65.136Z" fill="#263238"/>
<path d="M349.318 69.2911C346.828 69.5146 341.19 66.5174 341.88 62.0064C341.88 61.9759 345.447 67.2794 349.318 69.2911Z" fill="#263238"/>
<path d="M353.012 79.3393C352.248 81.0144 350.952 82.3898 349.324 83.2509C347.18 84.3685 345.971 82.7429 346.459 80.589C346.896 78.6586 348.542 75.7426 350.747 75.509C352.951 75.2753 353.896 77.3073 353.012 79.3393Z" fill="#E4897B"/>
<path d="M364.187 71.1199C365.705 70.461 367.036 69.4358 368.061 68.1361C369.086 66.8364 369.772 65.3028 370.059 63.6726C370.059 63.6726 373.412 72.9894 364.187 71.1199Z" fill="#263238"/>
<path d="M372.657 70.9675C371.95 70.4926 371.137 70.2005 370.289 70.1171C369.442 70.0338 368.587 70.1619 367.801 70.4899C367.801 70.4899 370.93 66.4361 372.657 70.9675Z" fill="#263238"/>
<path d="M347.046 170.464C347.046 170.464 355.519 227.503 360.162 248.869C365.242 272.237 384.445 350.225 384.445 350.225H398.11C398.11 350.225 385.461 274.157 382.555 250.952C379.405 225.806 372.802 170.424 372.802 170.424L347.046 170.464Z" fill="#0682FF"/>
<path opacity="0.5" d="M347.046 170.464C347.046 170.464 355.519 227.503 360.162 248.869C365.242 272.237 384.445 350.225 384.445 350.225H398.11C398.11 350.225 385.461 274.157 382.555 250.952C379.405 225.806 372.802 170.424 372.802 170.424L347.046 170.464Z" fill="white"/>
<path d="M382.257 345.186C382.196 345.186 383.669 350.439 383.669 350.439H399.051L398.767 345.755L382.257 345.186Z" fill="#0682FF"/>
<path opacity="0.1" d="M382.257 345.186C382.196 345.186 383.669 350.439 383.669 350.439H399.051L398.767 345.755L382.257 345.186Z" fill="black"/>
<path d="M352.389 190.784C362.184 192.705 361.147 229.23 359.969 248.016C357.144 234.737 353.009 209.184 350.185 191.049C350.868 190.712 351.646 190.619 352.389 190.784Z" fill="#0682FF"/>
<path opacity="0.4" d="M352.389 190.784C362.184 192.705 361.147 229.23 359.969 248.016C357.144 234.737 353.009 209.184 350.185 191.049C350.868 190.712 351.646 190.619 352.389 190.784Z" fill="white"/>
<path d="M332.876 170.465C332.876 170.465 331.86 226.263 332.662 249.032C333.506 272.705 341.806 350.225 341.806 350.225H354.445C354.445 350.225 354.913 274.086 355.461 250.84C356.081 225.491 359.139 170.465 359.139 170.465H332.876Z" fill="#0682FF"/>
<path opacity="0.5" d="M332.876 170.465C332.876 170.465 331.86 226.263 332.662 249.032C333.506 272.705 341.806 350.225 341.806 350.225H354.445C354.445 350.225 354.913 274.086 355.461 250.84C356.081 225.491 359.139 170.465 359.139 170.465H332.876Z" fill="white"/>
<path d="M344.43 341.142C344.399 341.142 344.37 341.131 344.347 341.11C344.324 341.089 344.311 341.061 344.308 341.03C342.073 319.572 336.82 267.655 336.18 249.032C335.499 230.022 336.119 187.371 336.322 174.752C336.322 174.719 336.335 174.688 336.358 174.666C336.381 174.643 336.412 174.63 336.444 174.63C336.477 174.63 336.51 174.642 336.534 174.665C336.559 174.688 336.574 174.719 336.576 174.752C336.373 187.371 335.753 230.022 336.434 249.021C337.094 267.645 342.347 319.542 344.562 341C344.562 341.034 344.55 341.068 344.528 341.094C344.505 341.12 344.474 341.137 344.44 341.142H344.43Z" fill="#0682FF"/>
<path opacity="0.4" d="M344.43 341.142C344.399 341.142 344.37 341.131 344.347 341.11C344.324 341.089 344.311 341.061 344.308 341.03C342.073 319.572 336.82 267.655 336.18 249.032C335.499 230.022 336.119 187.371 336.322 174.752C336.322 174.719 336.335 174.688 336.358 174.666C336.381 174.643 336.412 174.63 336.444 174.63C336.477 174.63 336.51 174.642 336.534 174.665C336.559 174.688 336.574 174.719 336.576 174.752C336.373 187.371 335.753 230.022 336.434 249.021C337.094 267.645 342.347 319.542 344.562 341C344.562 341.034 344.55 341.068 344.528 341.094C344.505 341.12 344.474 341.137 344.44 341.142H344.43Z" fill="white"/>
<path d="M339.345 345.186C339.294 345.186 340.067 350.439 340.067 350.439H355.439L355.855 345.755L339.345 345.186Z" fill="#0682FF"/>
<path opacity="0.1" d="M339.345 345.186C339.294 345.186 340.067 350.439 340.067 350.439H355.439L355.855 345.755L339.345 345.186Z" fill="black"/>
</svg>
